<svg width="1024" height="1024" viewBox="0 0 1024 1024" fill="none" xmlns="http://www.w3.org/2000/svg">
<path d="M487 625.2V398.8C487 382.651 480.787 367.323 469.978 356.148C459.196 345.002 444.752 338.9 429.875 338.9C414.998 338.9 400.554 345.002 389.772 356.148C378.963 367.323 372.75 382.651 372.75 398.8V568.6L372.742 569.246C372.4 582.754 361.341 593.6 347.75 593.6C334.159 593.6 323.1 582.754 322.758 569.246L322.75 568.6V398.8C322.75 369.916 333.841 342.055 353.835 321.385C373.856 300.688 401.191 288.9 429.875 288.9C458.559 288.9 485.894 300.688 505.915 321.385C525.909 342.055 537 369.916 537 398.8V625.2C537 641.349 543.213 656.678 554.022 667.852C564.804 678.998 579.248 685.1 594.125 685.1L594.822 685.095C609.453 684.908 623.614 678.824 634.228 667.852C645.037 656.678 651.25 641.349 651.25 625.2V455.4C651.25 441.593 662.443 430.4 676.25 430.4C690.057 430.4 701.25 441.593 701.25 455.4V625.2C701.25 654.084 690.159 681.946 670.165 702.615C650.457 722.989 623.662 734.729 595.469 735.091L594.125 735.1C565.441 735.1 538.106 723.312 518.085 702.615C498.091 681.946 487 654.084 487 625.2Z" fill="#FF9B00" style="fill:#FF9B00;fill:color(display-p3 1.0000 0.6078 0.0000);fill-opacity:1;"/>
</svg>
